<?xml version="1.0" standalone="no"?><!DOCTYPE svg PUBLIC "-//W3C//DTD SVG 1.1//EN" "http://www.w3.org/Graphics/SVG/1.1/DTD/svg11.dtd"><svg t="1541662233977" class="icon" style="" viewBox="0 0 1024 1024" version="1.1" xmlns="http://www.w3.org/2000/svg" p-id="1143" xmlns:xlink="http://www.w3.org/1999/xlink" width="1024" height="1024"><defs><style type="text/css"></style></defs><path d="M312.584 565.872V444.936c33.752-14.064 56.248-45 56.248-81.56s-22.504-67.504-56.248-78.752V138.376c0-16.872-11.248-28.128-28.128-28.128s-28.128 11.248-28.128 28.128v146.248c-33.752 11.248-56.248 42.184-56.248 78.752s22.504 67.504 56.248 78.752v120.936c-33.752 11.248-56.248 42.184-56.248 78.752s22.504 67.504 56.248 78.752v149.064c0 16.872 11.248 28.128 28.128 28.128s28.128-11.248 28.128-28.128V723.376c33.752-11.248 56.248-42.184 56.248-78.752s-22.496-67.496-56.248-78.752z m-28.128-230.624c16.872 0 28.128 11.248 28.128 28.128s-11.248 28.128-28.128 28.128-28.128-11.248-28.128-28.128 11.256-28.128 28.128-28.128z m0 337.504c-16.872 0-28.128-11.248-28.128-28.128s11.248-28.128 28.128-28.128 28.128 11.248 28.128 28.128-11.248 28.128-28.128 28.128zM760.872 680.752H489.656c-16.952 0-33.904 11.248-33.904 28.128s13.56 28.128 33.904 28.128H760.88c16.952 0 33.904-11.248 33.904-28.128s-13.56-28.128-33.912-28.128zM828.696 287h-339.04c-16.952 0-33.904 11.248-33.904 28.128s13.56 28.128 33.904 28.128h339.04c16.944 0 33.896-11.248 33.896-28.128s-13.56-28.128-33.896-28.128zM760.872 455.752c16.952 0 33.904-11.248 33.904-28.128s-13.552-28.128-33.904-28.128H489.656c-16.952 0-33.904 11.248-33.904 28.128s13.56 28.128 33.904 28.128h271.216zM828.696 568.248h-339.04c-16.952 0-33.904 11.248-33.904 28.128s13.56 28.128 33.904 28.128h339.04c16.944 0 33.896-11.248 33.896-28.128s-13.56-28.128-33.896-28.128z" p-id="1144"></path></svg>