<?xml version="1.0" standalone="no"?><!DOCTYPE svg PUBLIC "-//W3C//DTD SVG 1.1//EN" "http://www.w3.org/Graphics/SVG/1.1/DTD/svg11.dtd"><svg t="1537438801708" class="icon" style="" viewBox="0 0 1024 1024" version="1.1" xmlns="http://www.w3.org/2000/svg" p-id="7717" data-spm-anchor-id="a313x.7781069.0.i13" xmlns:xlink="http://www.w3.org/1999/xlink" width="1024" height="1024"><defs><style type="text/css"></style></defs><path d="M310 742.4c-3.5 0-6.9-2.1-8.3-5.6-1.9-4.6 0.3-9.9 4.9-11.7 0.6-0.2 56.5-23.1 131.4-44.1 100.9-28.3 186.3-39.9 254-34.5 158.7 12.7 186.2 31.3 188.8 33.4L869.6 694l0.3 0.3c-1.1-0.7-28-17.7-179.3-29.8-81.6-6.5-179.7 14.8-247.7 33.9-73.9 20.7-128.9 43.2-129.4 43.4-1.2 0.3-2.4 0.6-3.5 0.6zM310 437.6c-3.5 0-6.9-2.1-8.3-5.6-1.9-4.6 0.3-9.9 4.9-11.7 0.6-0.2 56.5-23.1 131.4-44.1 100.9-28.3 186.3-39.9 254-34.5 158.7 12.7 186.2 31.3 188.8 33.4l-11.2 14.1 0.3 0.3c-1.1-0.7-28-17.7-179.3-29.8-81.6-6.5-179.6 14.8-247.5 33.8-73.9 20.7-129.1 43.3-129.6 43.5-1.2 0.4-2.4 0.6-3.5 0.6z" fill="#FC6B79" p-id="7718"></path><path d="M174.6 242c-4.6 0-8.6-3.6-9-8.3-0.2-3.1-5.6-76.5 32.5-101.6 19.2-12.7 45-10.7 76.7 5.9 43.6 22.9 64.3 14 92.9 1.6 20.8-8.9 44.3-19.1 80.4-19.1 5 0 9 4 9 9s-4 9-9 9c-32.4 0-53.2 9-73.3 17.6-29.4 12.7-57.2 24.6-108.4-2.2-25.4-13.3-45.1-15.6-58.4-6.8-24.3 16-25.9 66.9-24.4 85.1 0.4 5-3.3 9.3-8.3 9.7-0.2 0.1-0.5 0.1-0.7 0.1z" fill="#18A3D3" p-id="7719"></path><path d="M310 855.4c-3.6 0-6.9-2.1-8.3-5.5-0.9-2-16.6-33.4-80.3-33.4-34.7 0-55 9.6-65.9 17.6-10.7 7.9-14.3 15.6-14.3 15.7-1.4 3.4-4.7 5.5-8.3 5.5-0.6 0-1.2-0.1-1.8-0.2-4.2-0.9-7.2-4.5-7.2-8.8V254.4c0-0.5 0-0.9 0.1-1.4 2.4-35.3 44.9-62.8 97.4-62.8 52.5 0 95 27.5 97.4 62.8 0.1 0.5 0.1 0.9 0.1 1.4v591.9c0 4.3-3 8.1-7.3 8.9-0.5 0.2-1.1 0.2-1.6 0.2z" fill="#d81e06" p-id="7720" data-spm-anchor-id="a313x.7781069.0.i12" class="selected"></path><path d="M221.4 199.3c48 0 87.1 24.5 88.5 55.1v591.9s-16.5-38.8-88.5-38.8-88.5 38.8-88.5 38.8V254.4c1.5-30.6 40.6-55.1 88.5-55.1m0-18c-26.5 0-51.8 6.7-71.2 18.8-21.2 13.3-33.7 31.7-35.1 52-0.1 0.8-0.2 1.5-0.2 2.3v591.9c0 8.7 6.1 16.6 14.7 18.1 1.1 0.2 2.3 0.3 3.4 0.3 7.2 0 13.8-4.2 16.4-11.2 1.5-2.8 16.4-28.1 72-28.1 57.5 0 71.8 27.6 72 27.9 2.9 6.7 9.5 10.9 16.6 10.9 1.2 0 2.4-0.1 3.6-0.4 8.4-1.7 14.4-9.1 14.4-17.6V254.4c0-0.8-0.1-1.6-0.2-2.3-1.5-20.3-13.9-38.7-35.1-52-19.5-12.1-44.7-18.8-71.3-18.8z" fill="" p-id="7721"></path><path d="M221.4 923.3c-25.3 0-49.3-6.4-67.5-18.1-19.4-12.5-30.1-29.4-30.1-47.8s10.7-35.3 30.1-47.8c18.2-11.7 42.1-18.1 67.5-18.1s49.3 6.4 67.5 18.1c19.4 12.5 30.1 29.4 30.1 47.8s-10.7 35.3-30.1 47.8c-18.1 11.7-42.1 18.1-67.5 18.1z" fill="#EAB236" p-id="7722"></path><path d="M221.4 800.6c48.9 0 88.5 25.5 88.5 56.9s-39.6 56.9-88.5 56.9-88.5-25.5-88.5-56.9 39.7-56.9 88.5-56.9m0-18c-27.1 0-52.7 6.9-72.3 19.5-10.3 6.6-18.4 14.4-24.3 23.3-6.6 10-9.9 20.8-9.9 32s3.3 22 9.9 32c5.9 8.9 14 16.7 24.3 23.3 19.6 12.6 45.3 19.5 72.3 19.5s52.7-6.9 72.3-19.5c10.3-6.6 18.4-14.4 24.3-23.3 6.6-10 9.9-20.8 9.9-32s-3.3-22-9.9-32c-5.9-8.9-14-16.7-24.3-23.3-19.5-12.6-45.2-19.5-72.3-19.5z" fill="" p-id="7723"></path><path d="M383.1 893.2c-12.6 0-22.9-10.3-22.9-22.9v-587c0-12.6 10.3-22.9 22.9-22.9h57.4c12.6 0 22.9 10.3 22.9 22.9v587c0 12.6-10.3 22.9-22.9 22.9h-57.4z" fill="#d81e06" p-id="7724" data-spm-anchor-id="a313x.7781069.0.i18" class="selected"></path><path d="M440.5 263.5c11 0 19.9 8.9 19.9 19.9v587c0 11-8.9 19.9-19.9 19.9h-57.4c-11 0-19.9-8.9-19.9-19.9v-587c0-11 8.9-19.9 19.9-19.9h57.4m0-6h-57.4c-14.3 0-25.9 11.6-25.9 25.9v587c0 14.3 11.6 25.9 25.9 25.9h57.4c14.3 0 25.9-11.6 25.9-25.9v-587c0-14.3-11.6-25.9-25.9-25.9z" fill="" p-id="7725"></path><path d="M527.3 843.1c-12.6 0-22.9-10.3-22.9-22.9v-587c0-12.6 10.3-22.9 22.9-22.9h57.4c12.6 0 22.9 10.3 22.9 22.9v587c0 12.6-10.3 22.9-22.9 22.9h-57.4z" fill="#d81e06" p-id="7726" data-spm-anchor-id="a313x.7781069.0.i14" class="selected"></path><path d="M584.7 213.4c11 0 19.9 8.9 19.9 19.9v587c0 11-8.9 19.9-19.9 19.9h-57.4c-11 0-19.9-8.9-19.9-19.9v-587c0-11 8.9-19.9 19.9-19.9h57.4m0-6h-57.4c-14.3 0-25.9 11.6-25.9 25.9v587c0 14.3 11.6 25.9 25.9 25.9h57.4c14.3 0 25.9-11.6 25.9-25.9v-587c0-14.3-11.6-25.9-25.9-25.9z" fill="" p-id="7727"></path><path d="M815.8 855.6c-12.6 0-22.9-10.3-22.9-22.9v-587c0-12.6 10.3-22.9 22.9-22.9h57.4c12.6 0 22.9 10.3 22.9 22.9v587c0 12.6-10.3 22.9-22.9 22.9h-57.4z" fill="#d81e06" p-id="7728" data-spm-anchor-id="a313x.7781069.0.i16" class="selected"></path><path d="M873.2 225.8c11 0 19.9 8.9 19.9 19.9v587c0 11-8.9 19.9-19.9 19.9h-57.4c-11 0-19.9-8.9-19.9-19.9v-587c0-11 8.9-19.9 19.9-19.9h57.4m0-6h-57.4c-14.3 0-25.9 11.6-25.9 25.9v587c0 14.3 11.6 25.9 25.9 25.9h57.4c14.3 0 25.9-11.6 25.9-25.9v-587c0-14.3-11.6-25.9-25.9-25.9z" fill="" p-id="7729"></path><path d="M671.6 798.2c-12.6 0-22.9-10.3-22.9-22.9v-587c0-12.6 10.3-22.9 22.9-22.9H729c12.6 0 22.9 10.3 22.9 22.9v587c0 12.6-10.3 22.9-22.9 22.9h-57.4z" fill="#d81e06" p-id="7730" data-spm-anchor-id="a313x.7781069.0.i17" class="selected"></path><path d="M729 168.4c11 0 19.9 8.9 19.9 19.9v587c0 11-8.9 19.9-19.9 19.9h-57.4c-11 0-19.9-8.9-19.9-19.9v-587c0-11 8.9-19.9 19.9-19.9H729m0-6h-57.4c-14.3 0-25.9 11.6-25.9 25.9v587c0 14.3 11.6 25.9 25.9 25.9H729c14.3 0 25.9-11.6 25.9-25.9v-587c-0.1-14.3-11.7-25.9-25.9-25.9z" fill="" p-id="7731"></path><path d="M397.4 136.3m-27 0a27 27 0 1 0 54 0 27 27 0 1 0-54 0Z" fill="#66C1FF" p-id="7732"></path><path d="M397.4 166.2c-16.5 0-30-13.4-30-30s13.4-30 30-30 30 13.4 30 30-13.5 30-30 30z m0-53.9c-13.2 0-24 10.8-24 24s10.8 24 24 24 24-10.8 24-24-10.8-24-24-24z" fill="#330867" p-id="7733"></path></svg>