<?xml version="1.0" standalone="no"?><!DOCTYPE svg PUBLIC "-//W3C//DTD SVG 1.1//EN" "http://www.w3.org/Graphics/SVG/1.1/DTD/svg11.dtd"><svg t="1541662301941" class="icon" style="" viewBox="0 0 1024 1024" version="1.1" xmlns="http://www.w3.org/2000/svg" p-id="1609" xmlns:xlink="http://www.w3.org/1999/xlink" width="1024" height="1024"><defs><style type="text/css"></style></defs><path d="M257.144463 280.295312c6.147401 0 12.03321-1.438753 17.526632-4.185464 6.278196-3.139098 12.817984-5.885809 19.488568-8.240133a39.17333 39.17333 0 0 0 26.289947-37.538383 39.212569 39.212569 0 0 0-39.238727-38.715545c-4.447056 0-8.763316 0.653979-13.079576 2.223528-9.809682 3.40069-19.357772 7.586154-28.513476 12.164006-9.417295 4.577852-16.34947 12.687189-19.75016 22.627666-3.269894 9.940478-2.485119 20.534934 2.223528 29.952229a39.081773 39.081773 0 0 0 35.053264 21.712096zM241.448972 414.099374a38.794022 38.794022 0 0 0-32.568144-17.395836c-7.71695 0-15.303104 2.223528-21.842892 6.670584a39.212569 39.212569 0 0 0-10.725252 54.411036c5.362626 7.978541 11.248435 15.957083 17.657427 23.804828 7.455358 9.286499 18.572998 14.649125 30.475412 14.649125 9.024907 0 17.657428-3.139098 24.720399-8.763316 8.109337-6.539788 13.210372-15.957083 14.256737-26.420743a38.323157 38.323157 0 0 0-8.501724-28.775067c-4.839443-6.016605-9.286499-12.164006-13.471963-18.180611zM291.805339 814.334398c-0.130796-6.016605-1.569549-11.640823-4.185464-17.003449a38.898659 38.898659 0 0 0-35.184059-21.712096c-6.016605 0-11.902414 1.307958-17.395836 4.054669l-0.392388 0.261591c-1.961936 1.046366-4.054669 2.092732-6.016605 3.269894a131.449738 131.449738 0 0 0-74.553582-23.150849C81.354962 760.054158 22.104483 819.304637 22.104483 892.027079s59.250479 131.972921 131.972922 131.972921 131.972921-59.250479 131.972921-131.972921c0-16.611061-3.139098-32.306553-8.763316-46.955678 9.155703-7.455358 14.649125-18.703794 14.518329-30.737003zM154.077405 945.522544C124.517563 945.522544 100.581939 921.58692 100.581939 892.027079s23.935624-53.495466 53.495466-53.495466 53.495466 24.06642 53.495465 53.495466-23.935624 53.495466-53.495465 53.495465zM174.089156 377.21497c1.177162 0 2.485119 0.130796 3.793077 0.130796 20.273343 0 37.0152-15.172308 39.107932-35.445651 0.130796-2.615915 0.653979-5.362626 1.438753-8.240133 0.523183-2.092732 1.177162-4.185464 2.092732-6.408992 1.831141-4.577852 2.746711-9.417295 2.746711-14.387534 0-16.218674-9.678886-30.475412-24.720398-36.492016a39.042534 39.042534 0 0 0-51.010346 21.842891c-1.961936 5.101035-3.662281 10.332865-5.101035 15.695491-1.700345 6.670584-3.008302 13.471963-3.662281 20.404139-1.046366 10.463661 2.092732 20.66573 8.763316 28.644271 6.670584 8.109337 16.087878 13.210372 26.551539 14.256738zM606.630732 353.14855c3.008302 1.831141 5.23183 3.269894 6.539788 4.054669 4.577852 2.877507 9.54809 5.885809 14.649125 9.155703 6.278196 4.054669 13.602759 6.147401 21.058117 6.147401 13.471963 0 25.89756-6.801379 33.091327-18.180611 4.054669-6.278196 6.147401-13.602759 6.147401-21.058117 0-13.471963-6.801379-25.89756-18.049815-33.091327l-0.261591-0.130796c-5.493422-3.531486-10.856048-6.801379-15.4339-9.678886a121.640056 121.640056 0 0 0-7.71695-4.577852c-6.016605-3.662281-12.94878-5.624218-20.011751-5.624217-13.733555 0-26.682335 7.455358-33.745306 19.226976-5.362626 9.024907-6.801379 19.619364-4.31626 29.690638 2.615915 10.202069 9.024907 18.703794 18.049815 24.066419zM378.653723 262.376293c7.324563 1.046366 15.041512 2.485119 23.15085 4.31626 2.746711 0.653979 5.624218 0.91557 8.370928 0.915571 18.311406 0 34.399285-12.94878 38.323158-30.737004 0.653979-3.008302 0.91557-6.016605 0.91557-8.894111-0.130796-18.442202-12.817984-34.006897-30.737003-37.930771-9.417295-2.092732-18.965385-3.793077-28.38268-5.23183-21.188913-3.269894-41.462256 11.902414-44.601354 32.960531-3.269894 21.319709 11.640823 41.33146 32.960531 44.601354zM494.538766 297.037169c8.763316 3.662281 16.34947 6.932175 23.020054 9.940478a39.434921 39.434921 0 0 0 51.925916-19.619364c2.223528-5.101035 3.40069-10.594457 3.40069-16.218674 0-15.303104-9.024907-29.429046-23.020054-35.707242-9.024907-4.054669-17.26504-7.71695-25.112785-10.856048a37.669179 37.669179 0 0 0-15.041513-3.008303c-15.957083 0-30.21382 9.417295-36.230425 24.06642-8.370929 20.011751 1.177162 43.031805 21.058117 51.402733zM418.415634 544.502746c-18.049815 0-33.745306 12.164006-38.061566 29.690638-0.91557 3.269894-1.307958 6.539788-1.177162 9.809682 0 17.919019 12.294801 33.483714 29.690638 37.799974 9.286499 2.354324 18.965385 4.31626 28.644271 6.016605 2.092732 0.261592 4.31626 0.523183 6.539788 0.523183 19.226977 0 35.445651-13.733555 38.584749-32.829736a39.238728 39.238728 0 0 0-32.175757-45.124537c-7.847746-1.307958-15.172308-2.877507-22.49687-4.708647a39.761911 39.761911 0 0 0-9.548091-1.177162zM719.899859 867.175885c-6.932175 0-13.733555 1.831141-19.619363 5.23183-5.885809 3.40069-12.164006 6.539788-18.965386 9.417295-9.678886 4.054669-17.134244 11.640823-21.058117 21.450504-4.054669 9.678886-3.923873 20.273343 0.130796 29.952229a39.068693 39.068693 0 0 0 51.402733 20.927322c9.809682-4.185464 19.226977-8.763316 27.859497-13.864351 12.164006-7.062971 19.619364-20.142547 19.488568-34.137693 0-6.801379-1.831141-13.602759-5.23183-19.488568a39.47416 39.47416 0 0 0-34.006898-19.488568zM740.173202 693.34832c2.877507 5.755013 5.624218 12.294801 7.978542 19.226977a39.081773 39.081773 0 0 0 49.702388 24.720398 39.369524 39.369524 0 0 0 24.720399-49.702388c-3.40069-10.071273-7.455358-19.75016-11.902415-29.036659a39.212569 39.212569 0 0 0-35.314855-21.842891c-6.016605 0-11.902414 1.307958-17.26504 4.054668-13.471963 6.539788-22.104483 20.534934-21.973687 35.576447 0.130796 5.885809 1.438753 11.510027 4.054668 17.003448zM687.331715 638.806489c5.101035 2.223528 10.463661 3.40069 15.957083 3.400689 15.564695 0 29.559842-9.155703 35.968834-23.281645 4.185464-9.54809 4.447056-20.273343 0.784774-29.952229a39.369524 39.369524 0 0 0-20.66573-21.842891c-9.940478-4.447056-20.66573-7.978541-31.652573-10.594457-20.927321-5.101035-42.377826 8.370929-47.348065 29.036659-0.653979 2.877507-1.046366 5.885809-1.046366 8.894111-0.130796 18.311406 12.294801 34.137693 30.21382 38.323158 6.539788 1.700345 12.425597 3.531486 17.788223 6.016605zM800.339252 764.762805c-21.188913-3.923873-41.854643 10.463661-45.778516 31.390982-1.307958 6.932175-3.008302 13.471963-5.101035 19.488568a39.17333 39.17333 0 0 0 73.899604 26.028356c3.531486-9.809682 6.278196-20.273343 8.370929-31.12939a39.277967 39.277967 0 0 0-31.390982-45.778516zM594.597522 898.959254h-0.653979c-7.586154 0.261592-15.172308-0.130796-22.758462-0.653979a39.539558 39.539558 0 0 0-41.985439 36.361221 39.343364 39.343364 0 0 0 36.361221 41.985439c8.109337 0.523183 16.34947 0.784775 24.589603 0.784775h4.970239c21.058117-0.261592 38.323157-17.657428 38.584749-38.715545v-1.046366c-0.261592-21.319709-17.919019-38.715545-39.107932-38.715545zM550.388555 632.397496c7.978541-0.523183 15.826287-0.91557 23.412441-1.438753l3.008303-0.130796c10.463661-0.784775 20.142547-5.362626 27.074722-13.210371 6.932175-7.978541 10.332865-18.049815 9.678886-28.513476a39.134091 39.134091 0 0 0-41.593051-36.622812l-3.269894 0.130795c-7.062971 0.523183-14.125942 0.91557-21.188913 1.307958h-1.307958l-0.523183 0.130796a39.107932 39.107932 0 0 0-36.622813 39.107932c0 0.653979 0 1.307958 0.130796 2.092732a39.107932 39.107932 0 0 0 39.107932 37.145995h2.092732zM401.150594 790.791161c-9.809682-8.763316-20.534934-15.695491-31.914165-20.66573-5.101035-2.223528-10.332865-3.40069-15.826287-3.40069-15.564695 0-29.690637 9.155703-35.968834 23.281646-4.185464 9.54809-4.447056 20.273343-0.784775 30.083024 3.793077 9.678886 11.11764 17.395836 20.796526 21.712096 4.185464 1.961936 7.71695 4.185464 11.640823 7.71695a39.461081 39.461081 0 0 0 55.457402-3.40069c6.278196-7.062971 9.809682-16.087878 9.809682-25.505173a38.977136 38.977136 0 0 0-13.210372-29.821433zM355.895261 563.337336c5.624218-8.894112 7.324563-19.488568 4.970239-29.690638s-8.63252-18.834589-17.526632-24.458807c-6.670584-4.054669-13.341167-8.501724-19.619364-13.079576-17.134244-12.164006-42.639418-7.847746-54.803423 9.155703-4.708647 6.670584-7.324563 14.518329-7.324562 22.627667 0 12.687189 6.147401 24.720399 16.480265 32.175757 7.847746 5.493422 15.826287 10.856048 23.935624 15.826286 6.147401 3.923873 13.341167 5.885809 20.534935 5.88581 13.733555 0 26.159152-6.932175 33.352918-18.442202zM486.167838 875.9392c-6.278196-3.40069-12.03321-6.932175-17.265041-10.725252-16.872653-12.425597-42.508622-8.370929-54.803423 8.501724a39.134091 39.134091 0 0 0 8.370929 54.803424c8.370929 6.147401 17.526632 11.771618 27.205518 16.872653 5.624218 3.008302 11.902414 4.447056 18.18061 4.447055 14.649125 0 27.990293-7.978541 34.791672-20.927321a39.068693 39.068693 0 0 0-16.480265-52.972283zM981.75297 120.201303L773.787712 4.970239c-12.164006-6.670584-26.943926-6.539788-38.977136 0.523183-11.902414 6.932175-19.226977 19.880955-19.226977 33.745306v320.318814c-4.708647 2.485119-8.894112 5.755013-12.164005 10.071274a38.977136 38.977136 0 0 0-7.978542 28.905863c1.307958 10.463661 6.539788 19.75016 14.779921 26.159152 6.670584 5.23183 13.341167 10.463661 19.75016 15.695491 7.062971 5.755013 15.826287 8.894112 24.851194 8.894111 11.771618 0 22.889258-5.23183 30.344616-14.387533 6.539788-7.978541 9.286499-17.657428 8.632521-27.074722 0-0.653979 0.261592-1.307958 0.261591-2.092732V292.982501l187.691915-104.24422a39.225648 39.225648 0 0 0 0-68.536978z m-187.691915 83.055307V105.813769l87.763955 48.656023-87.763955 48.786818z" p-id="1610"></path></svg>