<?xml version="1.0" standalone="no"?><!DOCTYPE svg PUBLIC "-//W3C//DTD SVG 1.1//EN" "http://www.w3.org/Graphics/SVG/1.1/DTD/svg11.dtd"><svg t="1537956029213" class="icon" style="" viewBox="0 0 1024 1024" version="1.1" xmlns="http://www.w3.org/2000/svg" p-id="1469" xmlns:xlink="http://www.w3.org/1999/xlink" width="1024" height="1024"><defs><style type="text/css"></style></defs><path d="M229.39075 981.321063c-85.628885 0-155.293714-69.664829-155.293714-155.29158 0-85.628885 69.664829-155.29158 155.293714-155.291579 19.205522 0 37.595875 3.529548 54.588494 9.931388l20.509363-37.800734a196.862998 196.862998 0 0 0-75.097857-14.809591c-109.162051 0-197.970517 88.808466-197.970517 197.970516 0 109.159917 88.8106 197.970517 197.970517 197.970517 101.951444 0 186.139915-77.468672 196.818185-176.631048h-43.028904c-10.437134 75.563058-75.405146 133.952111-153.789281 133.952111z" fill="" p-id="1470"></path><path d="M341.969249 663.281894l-20.505095 37.794332c32.892657 24.301387 55.864594 61.257078 61.715877 103.618057h43.028904c-6.301545-58.51709-38.199782-109.467205-84.239686-141.412389zM794.611384 628.058967a196.909945 196.909945 0 0 0-75.097857 14.809591l20.509363 37.800734a154.512689 154.512689 0 0 1 54.588494-9.931388c85.628885 0 155.293714 69.664829 155.293714 155.291579 0 85.626751-69.664829 155.29158-155.293714 155.29158-85.626751 0-155.29158-69.664829-155.29158-155.29158 0-51.184849 24.90316-96.65072 63.218176-124.957525l-20.505096-37.794332c-51.55829 35.773485-85.392017 95.381022-85.392016 162.749724 0 109.159917 88.808466 197.970517 197.970516 197.970516 109.162051 0 197.97265-88.808466 197.972651-197.970516-0.002134-109.159917-88.812734-197.968383-197.972651-197.968383z" fill="" p-id="1471"></path><path d="M450.879495 819.706599a21.320263 21.320263 0 0 1-0.499344-15.01445h-185.134826l56.216695-103.618057 20.505096-37.794332 38.029066-70.091618a381.733215 381.733215 0 0 0-10.883129-5.262313 230.19098 230.19098 0 0 1-9.312544-4.208143 210.669634 210.669634 0 0 1-17.976368-9.66678l-37.337668 68.817652-20.509363 37.800734-73.345887 135.185533a21.341602 21.341602 0 0 0 18.755259 31.516261H508.370156l-44.844892-15.714385a21.343736 21.343736 0 0 1-12.645769-11.950102zM775.853991 836.206276a21.328799 21.328799 0 0 0 28.932052 8.5806c10.358178-5.620816 14.199282-18.573873 8.5806-28.934185l-73.343753-135.185533-20.509363-37.800734-41.929922-77.283019 52.307305-96.411718h-12.699117a21.239173 21.239173 0 0 1-9.598493-2.298261c-0.023473-0.01067-0.066152-0.014938-0.087492-0.025607l-19.514944-9.939925-47.38429 87.338177h-127.891702c-13.294489 18.52906-27.515111 33.086846-43.551721 42.678937h148.287966l-115.540418 212.957225 40.79893 14.29531 110.596063-203.845272 28.727192 52.947489 20.505096 37.794332 73.316011 135.132184z" fill="#E85512" p-id="1472"></path><path d="M513.651675 456.395747c13.407588-27.845872 24.608675-51.763149 31.821415-72.084724l-61.453401-31.302866c-10.501152-5.349805-14.677286-18.198299-9.329616-28.699452 5.349805-10.503286 18.198299-14.681554 28.701585-9.327481l50.775132 25.863436c-0.706336-16.269211-8.386411-34.153819-51.231796-54.765612-19.956671-9.611297-35.96554-14.282506-48.946339-14.282506-33.424009 0-53.338001 34.185828-90.810108 112.185853-28.744264 59.684359-37.811404 96.970812-29.405787 120.924366 5.456502 15.552205 19.542685 28.340948 44.317808 40.246237a463.087804 463.087804 0 0 1 7.884933 3.553022c13.663662 5.806469 25.396101 8.676628 35.632645 8.676628 30.91022-0.002134 57.57602-29.260679 92.043529-100.986901z" fill="#6ECCAE" p-id="1473"></path><path d="M504.413819 163.349363c9.984737 19.252468 26.872793 33.470956 47.552871 40.034977 35.65185 11.309918 73.431245-3.380172 92.818152-33.400536l-149.427493-47.424835c-0.608175 14.015763 2.428432 28.008052 9.05647 40.790394z" fill="#7A4D33" p-id="1474"></path><path d="M499.349963 798.985975c20.362121-51.387574 23.155457-97.574719 8.271178-137.552079-9.513135-25.558281-26.046955-48.318958-49.957829-68.617061a95.159092 95.159092 0 0 0 11.497705-5.891827c16.038744-9.592091 30.257232-24.149876 43.551721-42.678937 13.789564-19.220459 26.591112-42.698142 39.396927-69.351139 12.778074-26.537763 23.714551-49.942892 31.597351-71.105242l104.281714 53.120338 19.514944 9.939925c0.021339 0.01067 0.064018 0.014938 0.087492 0.025607a21.20503 21.20503 0 0 0 9.598493 2.298261H771.056879c21.348004 0 38.716198 17.368193 38.716197 38.716197 0 11.783654 9.55368 21.339468 21.339469 21.339469s21.339468-9.555814 21.339468-21.339469c0-44.88117-36.513964-81.395134-81.395134-81.395134h-48.747882L595.371169 361.834161c1.013625-6.500002 1.568451-12.805815 1.53004-18.925975-0.330762-53.030713-43.231629-79.781871-75.462762-95.287128-25.8549-12.45158-47.91991-18.505587-67.456194-18.505587-63.760198 0-94.121993 63.203238-129.270232 136.365605-34.966853 72.603273-44.01052 117.091797-31.217508 153.554547 7.752629 22.09702 23.304833 39.879199 48.32536 55.015283a210.347408 210.347408 0 0 0 17.976368 9.66678c3.156107 1.512968 6.256732 2.90857 9.312544 4.208143 3.734407 1.732765 7.355715 3.486869 10.883129 5.262313 46.850803 23.558773 75.616406 50.871159 87.628394 83.134301 12.761002 34.281856 7.281027 76.670576-16.294819 125.990355-0.371307 0.774623-0.678595 1.572719-0.95174 2.377217a21.333067 21.333067 0 0 0 0.499344 15.01445 21.341602 21.341602 0 0 0 12.647903 11.950102l44.844893 15.714385 26.731952 9.368027a21.271182 21.271182 0 0 0 7.056962 1.20568c8.811067 0 17.060905-5.501315 20.138056-14.288909 3.896587-11.122131-1.958963-23.298432-13.081094-27.195018l-6.510672-2.281189-40.798929-14.29531-2.552201-0.896258z m-77.743951-241.605461c-10.238677 0-21.968983-2.870159-35.632645-8.676628a463.087804 463.087804 0 0 0-7.884933-3.553022c-24.775123-11.903155-38.861306-24.694033-44.317808-40.246237-8.405617-23.953553 0.663657-61.240007 29.405787-120.924366 37.472107-78.002159 57.386099-112.185853 90.810108-112.185853 12.980799 0 28.987534 4.67121 48.946339 14.282506 42.845385 20.611793 50.527593 38.496401 51.231796 54.765612l-50.775132-25.863436c-10.501152-5.354073-23.35178-1.175805-28.701585 9.327481-5.349805 10.501152-1.171537 23.349646 9.329616 28.699452l61.453401 31.302866c-7.21274 20.319442-18.413827 44.238852-31.821415 72.084724-34.465375 71.728355-61.131175 100.9869-92.043529 100.986901z" fill="" p-id="1475"></path><path d="M648.664358 88.629214c-9.982603-19.295147-26.868525-33.534975-47.550738-40.098995C588.877569 44.64857 575.768734 42.678937 562.154153 42.678937c-33.677949 0-64.927467 12.182703-81.888077 30.312715L657.733632 129.317179c0.591103-13.964548-2.464709-27.918427-9.069274-40.687965z" fill="#F7CF40" p-id="1476"></path><path d="M442.049222 105.638905l11.696163 3.713067c-3.45486 25.137894 0.866382 50.670568 12.782342 73.646773 15.229979 29.367376 40.988851 51.054678 72.528585 61.062889a123.393342 123.393342 0 0 0 37.395285 5.817139c52.561245 0 101.467038-33.746235 118.197181-86.456856 9.993273-31.48852 7.123115-65.014958-8.079123-94.40154-15.223577-29.429261-40.988851-51.15284-72.54779-61.167453C597.605412 2.641826 580.153994 0 562.154153 0c-64.157112 0-119.255619 32.421054-133.988389 78.842934a21.335201 21.335201 0 0 0 13.883458 26.795971z m109.917468 97.745435c-20.680079-6.56402-37.568134-20.780374-47.552871-40.034977-6.628039-12.782342-9.664645-26.774631-9.054336-40.790394l149.427493 47.424835c-19.386907 30.020364-57.168436 44.70832-92.820286 33.400536zM562.154153 42.678937c13.614581 0 26.723416 1.969633 38.959467 5.851282 20.682213 6.56402 37.568134 20.803848 47.550738 40.098995 6.604565 12.767404 9.662511 26.721282 9.069274 40.685831L480.266076 72.991652C497.226686 54.861639 528.476204 42.678937 562.154153 42.678937z" fill="" p-id="1477"></path></svg>