<?xml version="1.0" standalone="no"?><!DOCTYPE svg PUBLIC "-//W3C//DTD SVG 1.1//EN" "http://www.w3.org/Graphics/SVG/1.1/DTD/svg11.dtd"><svg t="1535810822101" class="icon" style="" viewBox="0 0 1024 1024" version="1.1" xmlns="http://www.w3.org/2000/svg" p-id="1331" xmlns:xlink="http://www.w3.org/1999/xlink" width="128" height="128"><defs><style type="text/css"></style></defs><path d="M894.304 175.488l0 724.736L225.312 900.224c-52.8 0-95.616-37.408-95.616-83.616 0-46.144 42.816-83.616 95.616-83.616l605.248 0L830.56 64l-637.12 0c-70.08 0-127.424 50.144-127.424 111.488l0 668.992c0 61.28 57.344 111.488 127.424 111.488l764.576 0L958.016 175.488 894.304 175.488 894.304 175.488zM257.12 788.736l573.44 0 0 55.744-573.44 0L257.12 788.736 257.12 788.736zM257.12 788.736" p-id="1332"></path></svg>